Coordinates
version=1
nRows=19
nColumns=34
inDegrees=yes

Units are S.I. units (second, meters, Newtons, ...)
If the header above contains a line with 'inDegrees', this indicates whether rotational values are in degrees (yes) or radians (no).

endheader
time	pelvis_tilt	pelvis_list	pelvis_rotation	pelvis_tx	pelvis_ty	pelvis_tz	hip_flexion_r	hip_adduction_r	hip_rotation_r	knee_angle_r	ankle_angle_r	subtalar_angle_r	mtp_angle_r	hip_flexion_l	hip_adduction_l	hip_rotation_l	knee_angle_l	ankle_angle_l	subtalar_angle_l	mtp_angle_l	lumbar_extension	lumbar_bending	lumbar_rotation	arm_flex_r	arm_add_r	arm_rot_r	elbow_flex_r	pro_sup_r	arm_flex_l	arm_add_l	arm_rot_l	elbow_flex_l	pro_sup_l
      1.10000000	     -1.93667203	      2.97692123	     -3.02604867	      1.79019446	      0.88823055	     -0.17222608	     -1.00966318	    -10.20879258	      3.68762884	      0.00000000	      1.15084398	    -18.00039898	      0.00000000	     -1.09732490	     -0.82837041	     -3.22801788	      1.49666235	      2.00618739	     -7.40205460	      0.00000000	     -9.75783639	     -0.64933134	     -0.79809397	     14.37287527	     -5.40598036	     41.17874339	     90.13081134	     91.81646859	     10.97460076	     -4.41061410	     27.55639948	     83.60044519	     89.12428414
      1.11666670	     -1.93432683	      2.88478734	     -2.90693142	      1.79034659	      0.88790814	     -0.17269105	     -1.05117655	    -10.13306493	      3.61383986	      0.00000000	      0.96942912	    -17.94157680	      0.00000000	     -1.24002724	     -0.91584120	     -3.03338984	      1.18974551	      1.90089897	     -7.29280306	      0.00000000	     -9.70582785	     -0.42319614	     -0.72319161	     13.97814954	     -5.62109493	     41.20976125	     90.09098570	     91.77148124	     10.88237128	     -4.51844885	     27.71659187	     83.74008095	     89.07681528
      1.13333330	     -1.91111215	      2.87490104	     -2.89702162	      1.79016487	      0.88749829	     -0.17298027	     -1.03558032	    -10.15914180	      3.61532667	      0.00000000	      0.96923202	    -17.94047463	      0.00000000	     -1.23549220	     -0.92924108	     -3.03464070	      1.18066002	      1.90152033	     -7.29439569	      0.00000000	     -9.70972977	     -0.41891033	     -0.72252637	     13.96972511	     -5.62435012	     41.20996310	     90.08991899	     91.77055668	     10.87804028	     -4.52314441	     27.72003960	     83.74018517	     89.07589343
      1.15000000	     -1.90895719	      2.88761091	     -2.82555584	      1.78996690	      0.88716230	     -0.17350478	     -1.03905264	    -10.21901210	      3.64411089	      0.00000000	      0.95460843	    -17.91757717	      0.00000000	     -1.23541264	     -0.90372600	     -3.04060543	      1.09819716	      1.91748559	     -7.31286871	      0.00000000	     -9.77314144	     -0.33152088	     -0.73351437	     13.82499555	     -5.70421094	     41.21417290	     90.06153423	     91.76120225	     10.80109888	     -4.60561334	     27.75852390	     83.72925572	     89.06735385
      1.16666670	     -1.88520369	      2.87253344	     -2.82980074	      1.78937119	      0.88727259	     -0.17401333	     -1.03093665	    -10.24634470	      3.64427747	      0.00000000	      0.95429855	    -17.91691043	      0.00000000	     -1.23231658	     -0.92062817	     -3.03792786	      1.08917628	      1.91866729	     -7.31314093	      0.00000000	     -9.76818732	     -0.32943174	     -0.73637070	     13.81277060	     -5.71013154	     41.21398809	     90.06097635	     91.76044061	     10.79358469	     -4.61236429	     27.76239391	     83.72900698	     89.06673234
      1.18333330	     -1.85506250	      2.88029321	     -2.83893655	      1.78894823	      0.88798811	     -0.17459909	     -1.04977859	    -10.31943081	      3.69135438	      0.00000000	      0.92128148	    -17.87051124	      0.00000000	     -1.30292855	     -0.87415443	     -3.00634322	      0.99078791	      1.94401202	     -7.32513394	      0.00000000	     -9.76712555	     -0.19333679	     -0.83005640	     13.58363394	     -5.92556061	     41.17651368	     90.02751516	     91.74594833	     10.64488096	     -4.76741988	     27.81861465	     83.69573500	     89.05687488
      1.20000000	     -1.84005198	      2.84464770	     -2.76668826	      1.78865401	      0.88887383	     -0.17471225	     -1.08069925	    -10.32114467	      3.74315381	      0.00000000	      0.89823524	    -17.81559944	      0.00000000	     -1.35163497	     -0.88922338	     -2.97978446	      0.88202896	      1.94934508	     -7.32820427	      0.00000000	     -9.70056156	     -0.17825703	     -0.85210805	     13.49482887	     -6.04089158	     41.11202762	     90.04431694	     91.73021265	     10.56092090	     -4.91634199	     27.83345504	     83.66735990	     89.04485983
      1.21666670	     -1.83515760	      2.82650758	     -2.77877627	      1.78847758	      0.88938754	     -0.17449625	     -1.05087730	    -10.34010169	      3.81239455	      0.00000000	      0.89582841	    -17.73657404	      0.00000000	     -1.41225087	     -0.87247568	     -2.92213879	      0.76286789	      1.93188080	     -7.30634941	      0.00000000	     -9.66390956	     -0.09394305	     -0.92024570	     13.33103642	     -6.20952983	     41.00608461	     90.06052721	     91.70559708	     10.51504626	     -5.12942893	     27.80203628	     83.61068734	     89.02409741
      1.23333330	     -1.81673665	      2.80752164	     -2.77019802	      1.78815368	      0.88918885	     -0.17437454	     -1.03349643	    -10.34245949	      3.81682182	      0.00000000	      0.89704626	    -17.73297475	      0.00000000	     -1.41642313	     -0.86349678	     -2.91986719	      0.75912913	      1.93156023	     -7.30492823	      0.00000000	     -9.66076342	     -0.09305446	     -0.92123102	     13.32347594	     -6.21510447	     41.00245534	     90.06144057	     91.70470432	     10.51358392	     -5.13959145	     27.79841491	     83.60789569	     89.02320049
      1.25000000	     -1.83028609	      2.77244899	     -2.72886832	      1.78786235	      0.88865511	     -0.17449344	     -1.01704645	    -10.30827202	      3.96325788	      0.00000000	      0.91914325	    -17.63800196	      0.00000000	     -1.45313008	     -0.87970787	     -2.84513429	      0.63425274	      1.95484951	     -7.26961852	      0.00000000	     -9.65616128	     -0.02663051	     -0.96070546	     13.13408289	     -6.41560890	     40.91870173	     90.06119869	     91.68806851	     10.52602796	     -5.45539481	     27.65950605	     83.52885825	     89.00397099
      1.26666670	     -1.81080582	      2.75803137	     -2.73298321	      1.78733587	      0.88829271	     -0.17471674	     -1.00454145	    -10.29746311	      3.96831592	      0.00000000	      0.92371215	    -17.63450610	      0.00000000	     -1.45940972	     -0.86777725	     -2.83891519	      0.62903337	      1.95691953	     -7.26590848	      0.00000000	     -9.64501968	     -0.02538451	     -0.96341002	     13.12591630	     -6.41914102	     40.91351704	     90.06588112	     91.68692673	     10.52537785	     -5.46482582	     27.65364521	     83.52624261	     89.00276248
      1.28333330	     -1.81217760	      2.69042214	     -2.80245550	      1.78708368	      0.88828283	     -0.17462520	     -0.97393698	    -10.21839238	      4.10016276	      0.00000000	      0.99741400	    -17.55984512	      0.00000000	     -1.56867777	     -0.92610875	     -2.72266036	      0.45038135	      2.04572294	     -7.21449134	      0.00000000	     -9.54570343	      0.04137234	     -1.02648307	     12.97155631	     -6.57469414	     40.80592437	     90.13154494	     91.66729349	     10.54296587	     -5.72512593	     27.50000319	     83.45364047	     88.98011495
      1.30000000	     -1.79476093	      2.68284177	     -2.78781106	      1.78645133	      0.88828691	     -0.17448016	     -0.96335601	    -10.21569428	      4.10445241	      0.00000000	      1.00134738	    -17.55730456	      0.00000000	     -1.56722398	     -0.92110819	     -2.72333109	      0.43724114	      2.05014467	     -7.21420621	      0.00000000	     -9.54190618	      0.04419984	     -1.02328259	     12.96839081	     -6.57601573	     40.80159809	     90.13607733	     91.66635879	     10.53630445	     -5.72955577	     27.49615246	     83.45037925	     88.97913258
      1.31666670	     -1.81786797	      2.64343079	     -2.73056765	      1.78572710	      0.88807106	     -0.17406964	     -0.92854841	    -10.17017771	      4.14858207	      0.00000000	      1.05831262	    -17.53576358	      0.00000000	     -1.60564004	     -0.96131214	     -2.71040486	      0.24305697	      2.12645764	     -7.20959263	      0.00000000	     -9.53703639	      0.07180971	     -1.02239966	     12.92374786	     -6.66644110	     40.71803910	     90.19297631	     91.65306429	     10.49480163	     -5.85892365	     27.40232440	     83.39276686	     88.96401109
      1.33333330	     -1.79805245	      2.60947201	     -2.85317763	      1.78534495	      0.88755845	     -0.17356803	     -0.88060550	    -10.12900280	      4.14887070	      0.00000000	      1.11091965	    -17.53632880	      0.00000000	     -1.68509008	     -1.00039437	     -2.66648036	      0.15926311	      2.16192772	     -7.18177724	      0.00000000	     -9.47254364	      0.09406003	     -1.07087840	     12.87515925	     -6.74027296	     40.64675195	     90.25665007	     91.64205602	     10.50318789	     -5.92612280	     27.32159581	     83.36905746	     88.95115831
      1.35000000	     -1.80978648	      2.58648849	     -2.73875834	      1.78489984	      0.88732421	     -0.17336289	     -0.87715499	    -10.07900000	      4.19118493	      0.00000000	      1.14769607	    -17.51839983	      0.00000000	     -1.69328220	     -1.04701205	     -2.67730600	      0.01602766	      2.20567891	     -7.18248969	      0.00000000	     -9.45427434	      0.09570570	     -1.03782694	     12.85905363	     -6.79143899	     40.58706218	     90.31321097	     91.63268056	     10.48293039	     -6.01585777	     27.23536845	     83.34315994	     88.93903364
      1.36666670	     -1.90298837	      2.42953642	     -2.80247600	      1.78464702	      0.88746638	     -0.17338337	     -0.73441562	     -9.87161333	      4.26511132	      0.00000000	      1.56472704	    -17.33345745	      0.00000000	     -1.61970296	     -1.25303820	     -2.69603506	      0.00000000	      2.50343183	     -6.92991065	      0.00000000	     -9.34283194	      0.31410600	     -0.98055947	     12.37442213	     -6.93731418	     39.83761448	     91.29876064	     91.47045569	     10.18409054	     -5.79441954	     26.35431070	     83.30242588	     88.74202886
      1.38333330	     -1.88043782	      2.43292971	     -2.79740901	      1.78427174	      0.88805286	     -0.17373638	     -0.71756465	     -9.87475255	      4.26346882	      0.00000000	      1.56300896	    -17.33156556	      0.00000000	     -1.61444259	     -1.25990212	     -2.69737580	      0.00000000	      2.50305293	     -6.92886657	      0.00000000	     -9.34161361	      0.31302869	     -0.97743870	     12.36879968	     -6.94327927	     39.83623860	     91.29768836	     91.46971424	     10.18881726	     -5.80203022	     26.34762084	     83.30374337	     88.74091394
      1.40000000	     -1.89277131	      2.41733574	     -2.76196905	      1.78396401	      0.88851648	     -0.17394651	     -0.67675658	     -9.84930798	      4.22921521	      0.00000000	      1.53425158	    -17.29819090	      0.00000000	     -1.55759891	     -1.29788894	     -2.72087150	      0.00000000	      2.49435567	     -6.90484458	      0.00000000	     -9.37818751	      0.32180099	     -0.92328009	     12.25791886	     -7.11048527	     39.80279303	     91.26319507	     91.45638204	     10.33625158	     -5.99988104	     26.17159098	     83.33214537	     88.71843142
